<svg xmlns="http://www.w3.org/2000/svg" width="90" height="78.75" viewBox="0 0 90 78.75">
  <path id="Icon_awesome-bars" data-name="Icon awesome-bars" d="M3.214,18.683H86.786A3.214,3.214,0,0,0,90,15.469V7.433a3.214,3.214,0,0,0-3.214-3.214H3.214A3.214,3.214,0,0,0,0,7.433v8.036A3.214,3.214,0,0,0,3.214,18.683Zm0,32.143H86.786A3.214,3.214,0,0,0,90,47.612V39.576a3.214,3.214,0,0,0-3.214-3.214H3.214A3.214,3.214,0,0,0,0,39.576v8.036A3.214,3.214,0,0,0,3.214,50.826Zm0,32.143H86.786A3.214,3.214,0,0,0,90,79.754V71.719A3.214,3.214,0,0,0,86.786,68.5H3.214A3.214,3.214,0,0,0,0,71.719v8.036A3.214,3.214,0,0,0,3.214,82.969Z" transform="translate(0 -4.219)"/>
</svg>
